# Aspose.3D Wavefront OBJ Exporter
# Copyright 2004-2022 Aspose Pty Ltd.
# File created: 10/02/2022 18:01:03


#
# object obj_35285869
#

v 3600 0 0
v 3600 1400 6000
v 3600 0 6000
v 3600 1400 0
v 0 1400 0
v 0 0 0
v 0 0 6000
v 0 1400 6000
v 2850 400 6000
v 2850 850 6000
v 2250 850 6000
v 1350 850 6000
v 750 850 6000
v 750 400 6000
v 2250 400 6000
v 1350 400 6000
v 1250 750 5800
v 850 500 5800
v 1250 500 5800
v 850 750 5800
v 1250 500 5900
v 850 500 5900
v 1250 750 5900
v 850 750 5900
v 1350 400 5900
v 750 400 5900
v 1350 850 5900
v 750 850 5900
v 2750 750 5800
v 2350 500 5800
v 2750 500 5800
v 2350 750 5800
v 2350 750 5900
v 2750 750 5900
v 2350 500 5900
v 2750 500 5900
v 2850 400 5900
v 2250 400 5900
v 2850 850 5900
v 2250 850 5900
# 40 vertices

vn 1 0 0
vn 0 2.7755575615628914E-17 -1
vn -1 0 0
vn 0 -1 -2.7755575615628914E-17
vn 0 1 2.7755575615628914E-17
vn 0 -2.7755575615628914E-17 1
# 6 vertex normals

g obj_35285869
s 1
f 1//1 2//1 3//1
f 2//1 1//1 4//1
f 5//2 1//2 6//2
f 1//2 5//2 4//2
f 5//3 7//3 8//3
f 7//3 5//3 6//3
f 1//4 7//4 6//4
f 7//4 1//4 3//4
f 2//5 5//5 8//5
f 5//5 2//5 4//5
f 3//6 9//6 7//6
f 9//6 3//6 2//6
f 9//6 2//6 10//6
f 10//6 2//6 11//6
f 11//6 2//6 12//6
f 12//6 2//6 13//6
f 7//6 14//6 8//6
f 14//6 7//6 9//6
f 14//6 9//6 15//6
f 14//6 15//6 16//6
f 8//6 14//6 13//6
f 8//6 13//6 2//6
f 11//6 16//6 15//6
f 16//6 11//6 12//6
f 17//6 18//6 19//6
f 18//6 17//6 20//6
f 21//5 18//5 22//5
f 18//5 21//5 19//5
f 17//3 21//3 23//3
f 21//3 17//3 19//3
f 17//4 24//4 20//4
f 24//4 17//4 23//4
f 18//1 24//1 22//1
f 24//1 18//1 20//1
f 25//6 21//6 26//6
f 21//6 25//6 27//6
f 21//6 27//6 23//6
f 23//6 27//6 24//6
f 26//6 22//6 28//6
f 22//6 26//6 21//6
f 28//6 22//6 24//6
f 28//6 24//6 27//6
f 26//1 13//1 14//1
f 13//1 26//1 28//1
f 16//5 26//5 14//5
f 26//5 16//5 25//5
f 27//3 16//3 12//3
f 16//3 27//3 25//3
f 27//4 13//4 28//4
f 13//4 27//4 12//4
f 29//6 30//6 31//6
f 30//6 29//6 32//6
f 29//4 33//4 32//4
f 33//4 29//4 34//4
f 30//1 33//1 35//1
f 33//1 30//1 32//1
f 36//5 30//5 35//5
f 30//5 36//5 31//5
f 29//3 36//3 34//3
f 36//3 29//3 31//3
f 37//6 36//6 38//6
f 36//6 37//6 39//6
f 36//6 39//6 34//6
f 34//6 39//6 33//6
f 38//6 35//6 40//6
f 35//6 38//6 36//6
f 40//6 35//6 33//6
f 40//6 33//6 39//6
f 9//5 38//5 15//5
f 38//5 9//5 37//5
f 39//3 9//3 10//3
f 9//3 39//3 37//3
f 39//4 11//4 40//4
f 11//4 39//4 10//4
f 38//1 11//1 15//1
f 11//1 38//1 40//1
#76 polygons

