# Aspose.3D Wavefront OBJ Exporter
# Copyright 2004-2022 Aspose Pty Ltd.
# File created: 10/02/2022 18:01:21


#
# object obj_32246222
#

v 1700 750 5800
v 1300 500 5800
v 1700 500 5800
v 1300 750 5800
v 1700 500 5900
v 1300 500 5900
v 1700 750 5900
v 1300 750 5900
v 1800 400 5900
v 1200 400 5900
v 1800 850 5900
v 1200 850 5900
v 1200 850 6000
v 1800 850 6000
v 1200 400 6000
v 1800 400 6000
v 3000 0 0
v 0 0 6000
v 0 0 0
v 3000 0 6000
v 0 1400 0
v 0 1400 6000
v 3000 1400 0
v 3000 1400 6000
# 24 vertices

vn 0 0 1
vn 0 1 0
vn -1 0 0
vn 0 -1 0
vn 1 0 0
vn 0 0 -1
# 6 vertex normals

g obj_32246222
s 1
f 1//1 2//1 3//1
f 2//1 1//1 4//1
f 5//2 2//2 6//2
f 2//2 5//2 3//2
f 1//3 5//3 7//3
f 5//3 1//3 3//3
f 1//4 8//4 4//4
f 8//4 1//4 7//4
f 2//5 8//5 6//5
f 8//5 2//5 4//5
f 9//1 5//1 10//1
f 5//1 9//1 11//1
f 5//1 11//1 7//1
f 7//1 11//1 8//1
f 10//1 6//1 12//1
f 6//1 10//1 5//1
f 12//1 6//1 8//1
f 12//1 8//1 11//1
f 11//4 13//4 12//4
f 13//4 11//4 14//4
f 10//5 13//5 15//5
f 13//5 10//5 12//5
f 16//2 10//2 15//2
f 10//2 16//2 9//2
f 11//3 16//3 14//3
f 16//3 11//3 9//3
f 17//4 18//4 19//4
f 18//4 17//4 20//4
f 21//3 18//3 22//3
f 18//3 21//3 19//3
f 21//6 17//6 19//6
f 17//6 21//6 23//6
f 17//5 24//5 20//5
f 24//5 17//5 23//5
f 24//2 21//2 22//2
f 21//2 24//2 23//2
f 20//1 16//1 18//1
f 16//1 20//1 24//1
f 16//1 24//1 14//1
f 14//1 24//1 13//1
f 18//1 15//1 22//1
f 15//1 18//1 16//1
f 22//1 15//1 13//1
f 22//1 13//1 24//1
#44 polygons

