# Aspose.3D Wavefront OBJ Exporter
# Copyright 2004-2022 Aspose Pty Ltd.
# File created: 10/02/2022 17:34:47


#
# object obj_24073247
#

v 1800 2300 5900
v 1800 0 6000
v 1800 2300 6000
v 1800 0 5900
v 600 2300 6000
v 600 2300 5900
v 2400 0 0
v 0 0 6000
v 0 0 0
v 600 0 5900
v 2400 0 6000
v 600 0 6000
v 1700 2200 5800
v 1700 100 5900
v 1700 2200 5900
v 1700 100 5800
v 700 2200 5900
v 700 2200 5800
v 700 100 5800
v 700 100 5900
v 0 2800 0
v 2400 2800 0
v 0 2800 6000
v 2400 2800 6000
# 24 vertices

vn -1 0 0
vn 0 -1 -2.7755575615628914E-17
vn 1 0 0
vn 0 1 2.7755575615628914E-17
vn 0 -2.7755575615628914E-17 1
vn 0 2.7755575615628914E-17 -1
# 6 vertex normals

g obj_24073247
s 1
f 1//1 2//1 3//1
f 2//1 1//1 4//1
f 1//2 5//2 6//2
f 5//2 1//2 3//2
f 7//2 8//2 9//2
f 8//2 7//2 10//2
f 10//2 7//2 4//2
f 4//2 7//2 2//2
f 2//2 7//2 11//2
f 12//2 8//2 10//2
f 13//1 14//1 15//1
f 14//1 13//1 16//1
f 13//2 17//2 18//2
f 17//2 13//2 15//2
f 19//3 17//3 20//3
f 17//3 19//3 18//3
f 14//4 19//4 20//4
f 19//4 14//4 16//4
f 13//5 19//5 16//5
f 19//5 13//5 18//5
f 21//6 7//6 9//6
f 7//6 21//6 22//6
f 21//1 8//1 23//1
f 8//1 21//1 9//1
f 24//5 2//5 11//5
f 2//5 24//5 3//5
f 3//5 24//5 5//5
f 5//5 8//5 12//5
f 8//5 5//5 23//5
f 23//5 5//5 24//5
f 7//3 24//3 11//3
f 24//3 7//3 22//3
f 24//4 21//4 23//4
f 21//4 24//4 22//4
f 4//5 14//5 10//5
f 14//5 4//5 1//5
f 14//5 1//5 15//5
f 15//5 1//5 17//5
f 10//5 20//5 6//5
f 20//5 10//5 14//5
f 6//5 20//5 17//5
f 6//5 17//5 1//5
f 10//3 5//3 12//3
f 5//3 10//3 6//3
#44 polygons

