# Aspose.3D Wavefront OBJ Exporter
# Copyright 2004-2022 Aspose Pty Ltd.
# File created: 10/02/2022 17:35:12


#
# object obj_1284766
#

v 400 0 5900
v 400 2300 6000
v 400 0 6000
v 400 2300 5900
v 2400 2800 7500
v 0 2800 0
v 0 2800 7500
v 2400 2800 0
v 2400 0 0
v 2400 2600 7000
v 2400 0 7000
v 2400 2600 7500
v 0 2600 7500
v 0 2600 7000
v 0 0 7000
v 0 0 0
v 500 100 5800
v 500 2200 5900
v 500 100 5900
v 500 2200 5800
v 1900 2200 5800
v 1900 100 5900
v 1900 2200 5900
v 1900 100 5800
v 2200 2600 6000
v 200 2600 7000
v 200 2600 6000
v 2200 2600 7000
v 2000 2300 5900
v 2000 0 6000
v 2000 2300 6000
v 2000 0 5900
v 200 0 7000
v 200 0 6000
v 2200 0 7000
v 2200 0 6000
v 900 100 5800
v 900 2200 5800
v 700 2200 5800
v 700 100 5800
v 900 2200 5900
v 700 2200 5900
v 900 100 5900
v 700 100 5900
# 44 vertices

vn 1 0 0
vn 0 1 0
vn -1 0 0
vn 0 0 -1
vn 0 0 1
vn 0 -1 0
vn 0 0 1
vn 0 0 1
# 8 vertex normals

g obj_1284766
s 1
f 1//1 2//1 3//1
f 2//1 1//1 4//1
f 5//2 6//2 7//2
f 6//2 5//2 8//2
f 9//1 10//1 11//1
f 10//1 5//1 12//1
f 5//1 10//1 8//1
f 8//1 10//1 9//1
f 6//3 13//3 7//3
f 13//3 6//3 14//3
f 14//3 6//3 15//3
f 15//3 6//3 16//3
f 6//4 9//4 16//4
f 9//4 6//4 8//4
f 17//1 18//1 19//1
f 18//1 17//1 20//1
f 21//3 22//3 23//3
f 22//3 21//3 24//3
f 5//5 13//5 12//5
f 13//5 5//5 7//5
f 25//6 26//6 27//6
f 26//6 13//6 14//6
f 13//6 26//6 12//6
f 12//6 26//6 28//6
f 28//6 26//6 25//6
f 12//6 28//6 10//6
f 29//3 30//3 31//3
f 30//3 29//3 32//3
f 26//5 15//5 33//5
f 15//5 26//5 14//5
f 34//1 26//1 33//1
f 26//1 34//1 27//1
f 10//5 35//5 11//5
f 35//5 10//5 28//5
f 25//3 35//3 28//3
f 35//3 25//3 36//3
f 16//6 34//6 15//6
f 34//6 16//6 9//6
f 34//6 9//6 1//6
f 1//6 9//6 32//6
f 32//6 9//6 30//6
f 30//6 9//6 36//6
f 36//6 9//6 35//6
f 35//6 9//6 11//6
f 3//6 34//6 1//6
f 33//6 15//6 34//6
f 29//6 2//6 4//6
f 2//6 29//6 31//6
f 21//7 37//7 24//7
f 37//7 21//7 38//7
f 39//8 17//8 40//8
f 17//8 39//8 20//8
f 32//5 22//5 1//5
f 22//5 32//5 29//5
f 22//5 29//5 23//5
f 23//5 29//5 41//5
f 41//5 29//5 42//5
f 42//5 29//5 18//5
f 1//5 19//5 4//5
f 19//5 1//5 22//5
f 19//5 22//5 43//5
f 19//5 43//5 44//5
f 4//5 19//5 18//5
f 4//5 18//5 29//5
f 41//5 44//5 43//5
f 44//5 41//5 42//5
f 39//6 18//6 20//6
f 18//6 39//6 42//6
f 44//2 17//2 19//2
f 17//2 44//2 40//2
f 39//3 44//3 42//3
f 44//3 39//3 40//3
f 25//5 30//5 36//5
f 30//5 25//5 31//5
f 31//5 25//5 2//5
f 2//5 34//5 3//5
f 34//5 2//5 27//5
f 27//5 2//5 25//5
f 21//6 41//6 38//6
f 41//6 21//6 23//6
f 37//1 41//1 43//1
f 41//1 37//1 38//1
f 22//2 37//2 43//2
f 37//2 22//2 24//2
#84 polygons

