# Aspose.3D Wavefront OBJ Exporter
# Copyright 2004-2022 Aspose Pty Ltd.
# File created: 10/02/2022 17:34:58


#
# object obj_46651328
#

v 600 0 5900
v 600 2300 6000
v 600 0 6000
v 600 2300 5900
v 1800 0 5900
v 1700 100 5900
v 1800 2300 5900
v 1700 2200 5900
v 700 2200 5900
v 700 100 5900
v 2400 2800 7500
v 0 2800 0
v 0 2800 7500
v 2400 2800 0
v 2400 0 0
v 2400 2600 7000
v 2400 0 7000
v 2400 2600 7500
v 2200 2600 6000
v 1800 0 6000
v 2200 0 6000
v 1800 2300 6000
v 200 0 6000
v 200 2600 6000
v 0 2600 7500
v 0 2600 7000
v 0 0 7000
v 0 0 0
v 1700 2200 5800
v 700 100 5800
v 1700 100 5800
v 700 2200 5800
v 2200 0 7000
v 200 0 7000
v 200 2600 7000
v 2200 2600 7000
# 36 vertices

vn 1 0 0
vn 0 0 1
vn 0 1 0
vn -1 0 0
vn 0 0 -1
vn 0 -1 0
# 6 vertex normals

g obj_46651328
s 1
f 1//1 2//1 3//1
f 2//1 1//1 4//1
f 5//2 6//2 1//2
f 6//2 5//2 7//2
f 6//2 7//2 8//2
f 8//2 7//2 9//2
f 1//2 10//2 4//2
f 10//2 1//2 6//2
f 4//2 10//2 9//2
f 4//2 9//2 7//2
f 11//3 12//3 13//3
f 12//3 11//3 14//3
f 15//1 16//1 17//1
f 16//1 11//1 18//1
f 11//1 16//1 14//1
f 14//1 16//1 15//1
f 19//2 20//2 21//2
f 20//2 19//2 22//2
f 22//2 19//2 2//2
f 2//2 23//2 3//2
f 23//2 2//2 24//2
f 24//2 2//2 19//2
f 12//4 25//4 13//4
f 25//4 12//4 26//4
f 26//4 12//4 27//4
f 27//4 12//4 28//4
f 12//5 15//5 28//5
f 15//5 12//5 14//5
f 29//2 30//2 31//2
f 30//2 29//2 32//2
f 6//3 30//3 10//3
f 30//3 6//3 31//3
f 30//1 9//1 10//1
f 9//1 30//1 32//1
f 29//6 9//6 32//6
f 9//6 29//6 8//6
f 29//4 6//4 8//4
f 6//4 29//4 31//4
f 28//6 23//6 27//6
f 23//6 28//6 15//6
f 23//6 15//6 1//6
f 1//6 15//6 5//6
f 5//6 15//6 20//6
f 20//6 15//6 21//6
f 21//6 15//6 33//6
f 33//6 15//6 17//6
f 3//6 23//6 1//6
f 34//6 27//6 23//6
f 11//2 25//2 18//2
f 25//2 11//2 13//2
f 19//6 35//6 24//6
f 35//6 25//6 26//6
f 25//6 35//6 18//6
f 18//6 35//6 36//6
f 36//6 35//6 19//6
f 18//6 36//6 16//6
f 7//6 2//6 4//6
f 2//6 7//6 22//6
f 7//4 20//4 22//4
f 20//4 7//4 5//4
f 35//2 27//2 34//2
f 27//2 35//2 26//2
f 23//1 35//1 34//1
f 35//1 23//1 24//1
f 16//2 33//2 17//2
f 33//2 16//2 36//2
f 19//4 33//4 36//4
f 33//4 19//4 21//4
#68 polygons

