# Aspose.3D Wavefront OBJ Exporter
# Copyright 2004-2022 Aspose Pty Ltd.
# File created: 10/02/2022 18:07:23


#
# object obj_2260925
#

v 3000 714.0228271484375 360.76937866210937504
v 0 700 314.83319091796875008
v 0 714.0228271484375 360.76937866210937504
v 3000 700 314.83319091796875008
v 0 650.415283203125 0
v 3000 650.415283203125 0
v 3000 1500 6000
v 0 0 6000
v 3000 0 6000
v 0 1500 6000
v 3000 0 0
v 0 0 0
v 0 1150 320
v 0 925 420
v 0 925 320
v 0 742.572021484375 383.20037841796875
v 3000 1150 320
v 3000 742.572021484375 383.20037841796875
v 3000 925 420
v 3000 925 320
# 20 vertices

vn 0 0.9564284682273864 -0.29196679592132568
vn 0 0.98782366514205936 -0.15557752549648284
vn 0 0 1
vn 0 -1 0
vn -1.4438228216156449E-15 0 -1
vn -1 0 0
vn 0 0.9981068968772888 -0.06150306388735771
vn 1 0 0
vn 0 0.1977383941411972 -0.98025482892990112
vn 0 0 -1
vn 0 0.61781305074691776 -0.78632503747940064
# 11 vertex normals

g obj_2260925
s 1
f 1//1 2//1 3//1
f 2//1 1//1 4//1
f 4//2 5//2 2//2
f 5//2 4//2 6//2
f 7//3 8//3 9//3
f 8//3 7//3 10//3
f 11//4 8//4 12//4
f 8//4 11//4 9//4
f 5//5 11//5 12//5
f 11//5 5//5 6//5
f 13//6 8//6 10//6
f 8//6 13//6 14//6
f 14//6 13//6 15//6
f 8//6 16//6 12//6
f 16//6 8//6 14//6
f 12//6 16//6 3//6
f 12//6 3//6 2//6
f 12//6 2//6 5//6
f 7//7 13//7 10//7
f 13//7 7//7 17//7
f 11//8 7//8 9//8
f 7//8 11//8 18//8
f 7//8 18//8 19//8
f 18//8 11//8 1//8
f 1//8 11//8 4//8
f 4//8 11//8 6//8
f 19//8 17//8 7//8
f 17//8 19//8 20//8
f 14//9 18//9 16//9
f 18//9 14//9 19//9
f 13//10 20//10 15//10
f 20//10 13//10 17//10
f 20//4 14//4 15//4
f 14//4 20//4 19//4
f 16//11 1//11 3//11
f 1//11 16//11 18//11
#36 polygons

