# Aspose.3D Wavefront OBJ Exporter
# Copyright 2004-2022 Aspose Pty Ltd.
# File created: 10/02/2022 18:07:41


#
# object obj_5307580
#

v 2400 1500 6000
v 0 1150 320
v 0 1500 6000
v 2400 1150 320
v 2400 0 0
v 2400 0 6000
v 2400 742.572021484375 383.20037841796875
v 2400 925 420
v 2400 714.0228271484375 360.76937866210937504
v 2400 700 314.83319091796875008
v 2400 650 0
v 2400 925 320
v 0 925 420
v 0 742.572021484375 383.20037841796875
v 0 925 320
v 0 714.0228271484375 360.76937866210937504
v 0 700 314.83319091796875008
v 0 650 0
v 0 0 6000
v 0 0 0
# 20 vertices

vn 0 1 -0.06150306388735771
vn 1 0 0
vn 0 0.1977383941411972 -0.98025482892990112
vn 0 0 -1
vn 0 -1 0
vn 0 0.61781305074691776 -0.78632503747940064
vn 0 0.9564284682273864 -0.29196679592132568
vn 0 0.98782366514205936 -0.15557752549648284
vn 0 0 1
vn -1 0 0
vn 0 0 -1
# 11 vertex normals

g obj_5307580
s 1
f 1//1 2//1 3//1
f 2//1 1//1 4//1
f 5//2 1//2 6//2
f 1//2 5//2 7//2
f 1//2 7//2 8//2
f 7//2 5//2 9//2
f 9//2 5//2 10//2
f 10//2 5//2 11//2
f 8//2 4//2 1//2
f 4//2 8//2 12//2
f 13//3 7//3 14//3
f 7//3 13//3 8//3
f 2//4 12//4 15//4
f 12//4 2//4 4//4
f 12//5 13//5 15//5
f 13//5 12//5 8//5
f 14//6 9//6 16//6
f 9//6 14//6 7//6
f 9//7 17//7 16//7
f 17//7 9//7 10//7
f 10//8 18//8 17//8
f 18//8 10//8 11//8
f 1//9 19//9 6//9
f 19//9 1//9 3//9
f 5//5 19//5 20//5
f 19//5 5//5 6//5
f 2//10 19//10 3//10
f 19//10 2//10 13//10
f 13//10 2//10 15//10
f 19//10 14//10 20//10
f 14//10 19//10 13//10
f 20//10 14//10 16//10
f 20//10 16//10 17//10
f 20//10 17//10 18//10
f 18//11 5//11 20//11
f 5//11 18//11 11//11
#36 polygons

