# Aspose.3D Wavefront OBJ Exporter
# Copyright 2004-2022 Aspose Pty Ltd.
# File created: 10/03/2022 15:39:37


#
# object obj_25707073
#

v 800 925 320
v 0 925 420
v 0 925 320
v 800 925 420
v 0 1150 320
v 0 0 6000
v 0 1500 6000
v 0 742.572021484375 383.20037841796875
v 0 0 0
v 0 714.0228271484375 360.76937866210937504
v 0 700 314.83319091796875008
v 0 650.415283203125 0
v 3600 1500 6000
v 3600 0 6000
v 3400 1500 6000
v 3600 0 0
v 3400 650.415283203125 0
v 3600 1500 0
v 3400 1500 0
v 3400 1150 320
v 3400 700 314.83319091796875008
v 3400 742.572021484375 383.20037841796875
v 3400 925 420
v 3400 714.0228271484375 360.76937866210937504
v 3400 925 320
# 25 vertices

vn 0 -1 0
vn -1 0 0
vn 0 0 1
vn 0 0 -1
vn 0 1 0
vn 0 0.9981068968772888 -0.06150306388735771
vn 0 0.98782366514205936 -0.15557752549648284
vn 0 0.1977383941411972 -0.98025482892990112
vn 0 0.9564284682273864 -0.29196679592132568
vn 1 0 0
vn 0 0.61781305074691776 -0.78632503747940064
vn 0 -0 -1
# 12 vertex normals

g obj_25707073
s 1
f 1//1 2//1 3//1
f 2//1 1//1 4//1
f 5//2 6//2 7//2
f 6//2 5//2 2//2
f 2//2 5//2 3//2
f 6//2 8//2 9//2
f 8//2 6//2 2//2
f 9//2 8//2 10//2
f 9//2 10//2 11//2
f 9//2 11//2 12//2
f 13//3 6//3 14//3
f 6//3 13//3 7//3
f 7//3 13//3 15//3
f 16//1 6//1 9//1
f 6//1 16//1 14//1
f 12//4 16//4 9//4
f 16//4 12//4 17//4
f 16//4 17//4 18//4
f 18//4 17//4 19//4
f 13//5 19//5 15//5
f 19//5 13//5 18//5
f 15//6 5//6 7//6
f 5//6 15//6 20//6
f 21//7 12//7 11//7
f 12//7 21//7 17//7
f 2//8 22//8 8//8
f 22//8 2//8 23//8
f 23//8 2//8 4//8
f 24//9 11//9 10//9
f 11//9 24//9 21//9
f 19//2 20//2 15//2
f 20//2 19//2 25//2
f 25//2 19//2 21//2
f 21//2 19//2 17//2
f 25//2 22//2 23//2
f 22//2 25//2 24//2
f 24//2 25//2 21//2
f 25//1 4//1 1//1
f 4//1 25//1 23//1
f 16//10 13//10 14//10
f 13//10 16//10 18//10
f 8//11 24//11 10//11
f 24//11 8//11 22//11
f 5//12 1//12 3//12
f 1//12 5//12 25//12
f 25//12 5//12 20//12
#46 polygons

