# Aspose.3D Wavefront OBJ Exporter
# Copyright 2004-2022 Aspose Pty Ltd.
# File created: 10/14/2022 19:54:52


#
# object obj_66668169
#

v 2400 1400 0
v 0 0 0
v 0 1400 0
v 2400 0 0
v 0 1400 6000
v 2400 1400 6000
v 0 0 6000
v 2400 0 6000
v 600 300 6000
v 1800 300 6000
v 1800 900 6000
v 600 900 6000
v 1700 400 5900
v 1700 800 5800
v 1700 400 5800
v 1700 800 5900
v 700 400 5900
v 700 400 5800
v 600 300 5900
v 600 900 5900
v 1800 300 5900
v 700 800 5900
v 1800 900 5900
v 700 800 5800
# 24 vertices

vn 0 0 -1
vn 0 1 0
vn -1 0 0
vn 1 0 0
vn 0 0 1
vn 0 -1 0
# 6 vertex normals

g obj_66668169
s 1
f 1//1 2//1 3//1
f 2//1 1//1 4//1
f 5//2 1//2 3//2
f 1//2 5//2 6//2
f 5//3 2//3 7//3
f 2//3 5//3 3//3
f 1//4 8//4 4//4
f 8//4 1//4 6//4
f 7//5 9//5 5//5
f 9//5 7//5 8//5
f 9//5 8//5 10//5
f 10//5 8//5 11//5
f 5//5 12//5 6//5
f 12//5 5//5 9//5
f 6//5 12//5 11//5
f 6//5 11//5 8//5
f 8//6 2//6 4//6
f 2//6 8//6 7//6
f 13//3 14//3 15//3
f 14//3 13//3 16//3
f 17//2 15//2 18//2
f 15//2 17//2 13//2
f 19//5 17//5 20//5
f 17//5 19//5 21//5
f 17//5 21//5 13//5
f 13//5 21//5 16//5
f 20//5 22//5 23//5
f 22//5 20//5 17//5
f 23//5 22//5 16//5
f 23//5 16//5 21//5
f 9//2 21//2 19//2
f 21//2 9//2 10//2
f 11//3 21//3 10//3
f 21//3 11//3 23//3
f 24//4 17//4 18//4
f 17//4 24//4 22//4
f 15//5 24//5 18//5
f 24//5 15//5 14//5
f 11//6 20//6 23//6
f 20//6 11//6 12//6
f 19//4 12//4 9//4
f 12//4 19//4 20//4
f 16//6 24//6 14//6
f 24//6 16//6 22//6
#44 polygons

