# Aspose.3D Wavefront OBJ Exporter
# Copyright 2004-2022 Aspose Pty Ltd.
# File created: 10/03/2022 15:39:06


#
# object obj_7591899
#

v 3600 800 7500
v 3600 1200 7700
v 3600 800 7700
v 3600 1200 7500
v 200 800 7500
v 200 0 7700
v 200 800 7700
v 200 0 7500
v 200 200 7500
v 0 1200 7500
v 0 800 7700
v 0 1200 7700
v 0 800 7500
v 200 1200 7500
v 3400 1200 7500
v 3400 800 7700
v 3400 0 7700
v 3400 0 7700
v 3400 0 7500
v 3400 800 7500
v 3400 800 7700
v 3400 800 7500
v 3400 0 7500
v 3400 200 7500
v 0 2800 0
v 3600 0 0
v 0 0 0
v 3600 2800 0
v 3600 800 7900
v 3400 800 7900
v 3600 0 7900
v 3600 2800 7500
v 1550 2200 5800
v 850 300 5800
v 1550 300 5800
v 850 2200 5800
v 2850 950 5900
v 2750 1050 5900
v 1650 950 5900
v 2850 2300 5900
v 2750 2200 5900
v 1750 2200 5900
v 1550 2200 5900
v 850 2200 5900
v 750 200 5900
v 850 300 5900
v 750 2300 5900
v 1550 300 5900
v 1650 200 5900
v 1750 1050 5900
v 3400 200 7500
v 200 200 6000
v 750 200 6000
v 1650 200 6000
v 3400 200 6000
v 1750 1050 5800
v 1750 2200 5800
v 3400 0 7900
v 2850 950 6000
v 1650 950 6000
v 2750 2200 5800
v 2750 1050 5800
v 2850 2300 6000
v 750 2300 6000
v 3400 2600 6000
v 3400 2600 7500
v 0 2800 7500
v 0 0 7900
v 0 800 7900
v 200 800 7900
v 200 0 7900
v 200 2600 6000
v 200 2600 7500
# 73 vertices

vn 1 0 0
vn -1 0 0
vn 0 1 0
vn 0 0 1
vn 0 -1 0
vn 0 1 0
vn 0 0 -1
vn 0 1 0
vn 1 0 0
vn -1 0 0
vn 0 1 0
vn 0 -1 0
vn 0 1 0
# 13 vertex normals

g obj_7591899
s 1
f 1//1 2//1 3//1
f 2//1 1//1 4//1
f 5//2 6//2 7//2
f 6//2 5//2 8//2
f 8//2 5//2 9//2
f 10//2 11//2 12//2
f 11//2 10//2 13//2
f 2//3 10//3 12//3
f 10//3 2//3 14//3
f 14//3 2//3 15//3
f 15//3 2//3 4//3
f 2//4 16//4 3//4
f 16//4 2//4 7//4
f 7//4 2//4 11//4
f 11//4 2//4 12//4
f 16//4 17//4 18//4
f 17//4 16//4 6//4
f 6//4 16//4 7//4
f 19//5 6//5 8//5
f 6//5 19//5 17//5
f 16//6 20//6 21//6
f 20//6 16//6 22//6
f 7//3 13//3 11//3
f 13//3 7//3 5//3
f 15//7 22//7 20//7
f 22//7 15//7 1//7
f 1//7 15//7 4//7
f 23//1 16//1 18//1
f 16//1 23//1 22//1
f 22//1 23//1 24//1
f 25//7 26//7 27//7
f 26//7 25//7 28//7
f 29//8 21//8 30//8
f 21//8 29//8 16//8
f 16//8 29//8 3//8
f 26//9 29//9 31//9
f 29//9 26//9 3//9
f 3//9 26//9 1//9
f 1//9 26//9 4//9
f 4//9 26//9 32//9
f 32//9 26//9 28//9
f 33//4 34//4 35//4
f 34//4 33//4 36//4
f 37//4 38//4 39//4
f 38//4 37//4 40//4
f 38//4 40//4 41//4
f 41//4 40//4 42//4
f 42//4 40//4 43//4
f 43//4 40//4 44//4
f 45//4 46//4 47//4
f 46//4 45//4 48//4
f 47//4 46//4 44//4
f 47//4 44//4 40//4
f 49//4 48//4 45//4
f 48//4 49//4 39//4
f 48//4 39//4 43//4
f 43//4 39//4 50//4
f 50//4 39//4 38//4
f 43//4 50//4 42//4
f 34//1 44//1 46//1
f 44//1 34//1 36//1
f 33//5 44//5 36//5
f 44//5 33//5 43//5
f 33//2 48//2 43//2
f 48//2 33//2 35//2
f 51//3 52//3 9//3
f 52//3 51//3 53//3
f 53//3 51//3 45//3
f 45//3 51//3 54//3
f 54//3 51//3 55//3
f 49//3 45//3 54//3
f 56//1 42//1 50//1
f 42//1 56//1 57//1
f 29//4 58//4 31//4
f 58//4 29//4 30//4
f 59//3 39//3 60//3
f 39//3 59//3 37//3
f 61//5 42//5 57//5
f 42//5 61//5 41//5
f 61//2 38//2 41//2
f 38//2 61//2 62//2
f 40//2 59//2 63//2
f 59//2 40//2 37//2
f 40//5 64//5 47//5
f 64//5 40//5 63//5
f 61//4 56//4 62//4
f 56//4 61//4 57//4
f 48//3 34//3 46//3
f 34//3 48//3 35//3
f 38//3 56//3 50//3
f 56//3 38//3 62//3
f 21//2 58//2 30//2
f 58//2 21//2 17//2
f 17//2 21//2 20//2
f 17//2 20//2 19//2
f 19//2 20//2 51//2
f 65//2 15//2 66//2
f 15//2 65//2 20//2
f 20//2 65//2 51//2
f 51//2 65//2 55//2
f 51//4 8//4 19//4
f 8//4 51//4 9//4
f 14//4 13//4 5//4
f 13//4 14//4 10//4
f 25//10 10//10 67//10
f 10//10 25//10 13//10
f 11//10 68//10 69//10
f 68//10 11//10 27//10
f 27//10 11//10 13//10
f 27//10 13//10 25//10
f 70//4 68//4 71//4
f 68//4 70//4 69//4
f 70//11 11//11 69//11
f 11//11 70//11 7//11
f 39//2 54//2 60//2
f 54//2 39//2 49//2
f 32//3 25//3 67//3
f 25//3 32//3 28//3
f 23//5 17//5 19//5
f 17//5 23//5 18//5
f 55//4 59//4 54//4
f 59//4 55//4 65//4
f 59//4 65//4 63//4
f 63//4 65//4 64//4
f 64//4 52//4 53//4
f 52//4 64//4 72//4
f 72//4 64//4 65//4
f 60//4 54//4 59//4
f 45//1 64//1 53//1
f 64//1 45//1 47//1
f 6//1 70//1 71//1
f 70//1 6//1 7//1
f 65//12 73//12 72//12
f 73//12 65//12 66//12
f 52//1 5//1 9//1
f 5//1 52//1 14//1
f 14//1 52//1 73//1
f 73//1 52//1 72//1
f 32//4 15//4 4//4
f 15//4 32//4 66//4
f 66//4 32//4 73//4
f 73//4 10//4 14//4
f 10//4 73//4 67//4
f 67//4 73//4 32//4
f 3//13 22//13 16//13
f 22//13 3//13 1//13
f 5//7 51//7 9//7
f 51//7 5//7 24//7
f 24//7 5//7 20//7
f 20//7 5//7 15//7
f 15//7 5//7 14//7
f 22//7 24//7 20//7
f 24//4 19//4 23//4
f 19//4 24//4 51//4
f 26//5 68//5 27//5
f 68//5 26//5 8//5
f 8//5 26//5 19//5
f 19//5 26//5 23//5
f 23//5 26//5 18//5
f 18//5 58//5 17//5
f 58//5 18//5 31//5
f 31//5 18//5 26//5
f 8//5 71//5 68//5
f 71//5 8//5 6//5
#164 polygons

