# Aspose.3D Wavefront OBJ Exporter
# Copyright 2004-2022 Aspose Pty Ltd.
# File created: 10/02/2022 17:43:58


#
# object obj_55397182
#

v 1700 2200 5900
v 1700 1050 5800
v 1700 1050 5900
v 1700 2200 5800
v 700 2200 5800
v 700 1050 5900
v 700 1050 5800
v 700 2200 5900
v 2400 0 6000
v 0 0 0
v 2400 0 0
v 0 0 6000
v 600 950 5900
v 600 2300 5900
v 1800 950 5900
v 1800 2300 5900
v 600 950 6000
v 600 2300 6000
v 0 2800 6000
v 2400 2800 0
v 0 2800 0
v 2400 2800 6000
v 1800 2300 6000
v 1800 950 6000
# 24 vertices

vn -1 0 0
vn 1 0 0
vn 0 -1 0
vn 0 -1 4.812742738718816E-16
vn 0 -3.2084951591458775E-15 1
vn 0 1 9.625485477437632E-16
vn 0 1 0
vn 0 -5.15651000157079E-16 1
vn 0 -1.2891275003926975E-16 -1
vn 0 -1 -1.443822885143116E-14
vn 0 3.766494206775646E-15 1
# 11 vertex normals

g obj_55397182
s 1
f 1//1 2//1 3//1
f 2//1 1//1 4//1
f 5//2 6//2 7//2
f 6//2 5//2 8//2
f 1//3 5//3 4//3
f 5//3 1//3 8//3
f 9//4 10//4 11//4
f 10//4 9//4 12//4
f 13//5 6//5 14//5
f 6//5 13//5 15//5
f 6//5 15//5 3//5
f 3//5 15//5 1//5
f 14//5 8//5 16//5
f 8//5 14//5 6//5
f 16//5 8//5 1//5
f 16//5 1//5 15//5
f 14//2 17//2 13//2
f 17//2 14//2 18//2
f 19//6 20//6 21//6
f 20//6 19//6 22//6
f 20//2 9//2 11//2
f 9//2 20//2 22//2
f 23//1 15//1 24//1
f 15//1 23//1 16//1
f 6//7 2//7 7//7
f 2//7 6//7 3//7
f 12//8 17//8 19//8
f 17//8 12//8 9//8
f 17//8 9//8 24//8
f 24//8 9//8 23//8
f 19//8 18//8 22//8
f 18//8 19//8 17//8
f 22//8 18//8 23//8
f 22//8 23//8 9//8
f 20//9 10//9 21//9
f 10//9 20//9 11//9
f 12//1 21//1 10//1
f 21//1 12//1 19//1
f 17//7 15//7 13//7
f 15//7 17//7 24//7
f 23//10 14//10 16//10
f 14//10 23//10 18//10
f 2//11 5//11 7//11
f 5//11 2//11 4//11
#44 polygons

