# Alias OBJ Model File
# Exported from SketchUp, (c) 2000-2012 Trimble Navigation Limited
# File units = meters

mtllib e6a04772-af6a-4336-9af1-7acc0bad23bf.mtl

g Mesh1 Model

usemtl Material
v 3.6 1.2 1.7
vt -66.9291 47.2441
vn 1 0 -0
v 3.6 0.8 1.7
vt -66.9291 31.4961
v 3.6 0.8 1.5
vt -59.0551 31.4961
v 3.6 1.2 1.5
vt -59.0551 47.2441
f 1/1/1 2/2/1 3/3/1 4/4/1 

v 0.2 0 1.7
vt 7.87402 0
vn 0 0 1
v 3.4 0 1.7
vt 133.858 0
v 3.40049 0 1.7
vt 133.878 0
v 3.40049 0.8 1.7
vt 133.878 31.4961
vt 141.732 31.4961
vt 141.732 47.2441
v -3.60956e-16 1.2 1.7
vt -1.42109e-14 47.2441
v -3.60956e-16 0.8 1.7
vt -1.42109e-14 31.4961
v 0.2 0.8 1.7
vt 7.87402 31.4961
f 5/5/2 6/6/2 7/7/2 8/8/2 2/9/2 1/10/2 9/11/2 10/12/2 11/13/2 

v 0.2 0 1.5
vt -7.87402 -59.0551
vn 0 -1 -0
v 3.4 0 1.5
vt -133.858 -59.0551
vt -133.858 -66.9291
vt -7.87402 -66.9291
f 12/14/3 13/15/3 6/16/3 5/17/3 

v 3.4 0.2 1.5
vt 133.858 7.87402
v 0.2 0.2 1.5
vt 7.87402 7.87402
f 12/5/2 13/6/2 14/18/2 15/19/2 

v 3.4 0 1.9
vt -133.858 -74.8031
vt -133.878 -66.9291
v 3.40049 0 1.5
vt -133.878 -59.0551
v 0.2 0 1.9
vt -7.87402 -74.8031
v 0 0 1.9
vt 0 -74.8031
v 0 0 -6
vt 0 236.22
v 3.6 0 -6
vt -141.732 236.22
v 3.6 0 1.9
vt -141.732 -74.8031
f 16/20/3 6/16/3 7/21/3 17/22/3 13/15/3 12/14/3 5/17/3 18/23/3 19/24/3 20/25/3 21/26/3 22/27/3 

v 3.4 1.2 1.5
vt 59.0551 47.2441
vn -1 5.82337e-17 -2.89987e-17
v 3.4 2.6 1.5
vt 59.0551 102.362
v 3.4 2.6 -0
vt -3.88171e-15 102.362
v 3.4 0.2 -0
vt -3.88171e-15 7.87402
vt 59.0551 7.87402
vt 59.0551 7.79506e-15
vt 66.9291 7.79506e-15
vt 74.8031 7.79506e-15
v 3.4 0.8 1.9
vt 74.8031 31.4961
v 3.4 0.8 1.7
vt 66.9291 31.4961
v 3.4 0.8 1.5
vt 59.0551 31.4961
f 23/28/4 24/29/4 25/30/4 26/31/4 14/32/4 13/33/4 6/34/4 16/35/4 27/36/4 28/37/4 29/38/4 

v 3.6 2.6 1.5
vt 141.732 102.362
vt 133.858 102.362
vt 133.858 47.2441
f 4/10/2 30/39/2 24/40/2 23/41/2 

vt -74.8031 0
vt 236.22 0
v 3.6 2.8 -6
vt 236.22 110.236
v 3.6 2.8 1.7
vt -66.9291 110.236
v 3.6 2.6 1.7
vt -66.9291 102.362
vt -59.0551 102.362
v 3.6 0.8 1.9
vt -74.8031 31.4961
f 22/42/1 21/43/1 31/44/1 32/45/1 33/46/1 30/47/1 4/4/1 3/3/1 2/2/1 34/48/1 

vt -141.732 0
vn 0 0 -1
vt 0 0
v 0 2.8 -6
vt 0 110.236
vt -141.732 110.236
f 21/49/5 20/50/5 35/51/5 31/52/5 

vn -1 1.65333e-17 -2.14365e-17
v -3.60956e-16 0.8 1.5
v -3.60956e-16 1.2 1.5
v -4.51195e-17 2.6 1.5
v -4.51195e-17 2.6 1.7
vt 66.9291 102.362
v 0 2.8 1.7
vt 66.9291 110.236
vt -236.22 110.236
vt -236.22 -8.37205e-32
vt 74.8031 2.65115e-32
v 0 0.8 1.9
f 10/37/6 36/38/6 37/28/6 38/29/6 39/53/6 40/54/6 35/55/6 20/56/6 19/57/6 41/36/6 

vn -1 0 -0
vt 66.9291 47.2441
f 37/28/7 36/38/7 10/37/7 9/58/7 

v 0.2 0.8 1.5
v 0.2 1.2 1.5
vt 7.87402 47.2441
f 42/13/2 43/59/2 37/11/2 36/12/2 

v 0.2 2.6 -0
vt 1.47982e-14 102.362
vn 1 -7.94103e-16 1.87938e-15
v 0.2 2.6 1.5
vt -59.0551 7.87402
v 0.2 0.2 -0
vt 1.47982e-14 7.87402
f 44/60/8 45/47/8 43/4/8 42/3/8 15/61/8 46/62/8 

vt -133.858 0
vt -141.732 -59.0551
vt -141.732 -66.9291
vt 1.77636e-15 -66.9291
vt 1.77636e-15 -59.0551
vt -7.87402 0
f 25/63/3 24/15/3 30/64/3 33/65/3 39/66/3 38/67/3 45/14/3 44/68/3 

vt -1.77636e-15 102.362
vt 141.732 110.236
f 40/51/2 39/69/2 33/39/2 32/70/2 

vn 0 1 -0
vt 0 -66.9291
vt 141.732 -66.9291
vt 141.732 236.22
f 35/25/9 40/71/9 32/72/9 31/73/9 

vt 7.87402 102.362
f 43/59/2 45/74/2 38/69/2 37/11/2 

vt -1.42109e-14 -66.9291
vt 141.732 -59.0551
vt 133.858 -59.0551
vt 7.87402 -59.0551
vt -1.42109e-14 -59.0551
f 9/75/9 1/72/9 4/76/9 23/77/9 43/78/9 37/79/9 

vt -141.732 31.4961
v 3.40049 0.8 1.5
vt -133.878 31.4961
vt -133.858 31.4961
vt -133.858 47.2441
vt -141.732 47.2441
f 3/80/5 47/81/5 29/82/5 23/83/5 4/84/5 

vn -1.36027e-15 1 -6.01593e-16
vt 133.878 -59.0551
vt 133.878 -66.9291
f 3/76/10 47/85/10 8/86/10 2/72/10 

vn -1.09767e-12 1 -9.02389e-16
vt 133.858 -66.9291
f 47/85/11 29/77/11 28/87/11 8/86/11 

vt -7.87402 47.2441
v 3.40049 0.2 1.5
vt -133.878 7.87402
vt -133.858 7.87402
vt -7.87402 7.87402
vt -7.87402 31.4961
f 43/88/5 23/83/5 29/82/5 47/81/5 48/89/5 14/90/5 15/91/5 42/92/5 

vt -59.0551 0
vt -66.9291 0
f 17/93/1 48/61/1 47/3/1 8/2/1 7/94/1 

vt 133.878 7.87402
f 48/95/2 14/18/2 13/6/2 17/7/2 

f 6/16/3 13/15/3 17/22/3 7/21/3 

v 1.65 0.2 -0
vt 64.9606 0
v 1.65 0.2 -0.1
vt 64.9606 3.93701
v 0.75 0.2 -0.1
vt 29.5276 3.93701
v 0.75 0.2 -0
vt 29.5276 0
f 14/77/9 26/6/9 49/96/9 50/97/9 51/98/9 52/99/9 46/5/9 15/78/9 

vt 29.5276 7.87402
v 0.75 2.3 -0
vt 29.5276 90.5512
v 2.85 2.3 -0
vt 112.205 90.5512
v 2.85 0.95 -0
vt 112.205 37.4016
v 1.65 0.95 -0
vt 64.9606 37.4016
vt 64.9606 7.87402
f 26/18/2 25/40/2 44/74/2 46/19/2 52/100/2 53/101/2 54/102/2 55/103/2 56/104/2 49/105/2 

vt 3.93701 7.87402
v 0.75 2.3 -0.1
vt 3.93701 90.5512
vt 0 90.5512
vt 0 7.87402
f 51/106/1 57/107/1 53/108/1 52/109/1 

v 0.85 0.3 -0.1
vt 33.4646 11.811
f 51/100/2 58/110/2 57/101/2

v 1.55 0.3 -0.1
vt 61.0236 11.811
f 58/110/2 51/100/2 59/111/2

f 50/105/2 59/111/2 51/100/2

v 1.65 0.95 -0.1
f 59/111/2 50/105/2 60/104/2

vt 0 37.4016
vt -3.93701 37.4016
vt -3.93701 7.87402
f 49/109/7 56/112/7 60/113/7 50/114/7 

vt 112.205 0
v 2.85 0.95 -0.1
vt 112.205 3.93701
f 56/96/9 55/115/9 61/116/9 60/97/9 

v 2.85 2.3 -0.1
vt -3.93701 90.5512
f 55/112/7 54/108/7 62/117/7 61/113/7 

vt -112.205 0
vt -29.5276 0
vt -29.5276 3.93701
vt -112.205 3.93701
f 54/118/3 53/119/3 57/120/3 62/121/3 

v 0.85 2.2 -0.1
vt 33.4646 86.6142
f 57/101/2 63/122/2 62/102/2

f 57/101/2 58/110/2 63/122/2

vt 3.93701 86.6142
vt 3.93701 11.811
v 0.85 0.3 -0.2
vt 7.87402 11.811
v 0.85 2.2 -0.2
vt 7.87402 86.6142
f 63/123/1 58/124/1 64/125/1 65/126/1 

vt 33.4646 7.87402
vt 33.4646 3.93701
vt 61.0236 3.93701
v 1.55 0.3 -0.2
vt 61.0236 7.87402
f 64/127/9 58/128/9 59/129/9 66/130/9 

v 1.55 2.2 -0.2
vt -7.87402 86.6142
vt -7.87402 11.811
vt -3.93701 11.811
v 1.55 2.2 -0.1
vt -3.93701 86.6142
f 67/131/7 66/132/7 59/133/7 68/134/7 

vt 61.0236 86.6142
f 64/110/2 66/111/2 67/135/2 65/122/2 

vt -61.0236 7.87402
vt -61.0236 3.93701
vt -33.4646 3.93701
vt -33.4646 7.87402
f 67/136/3 68/137/3 63/138/3 65/139/3 

f 68/135/2 62/102/2 63/122/2

v 1.75 2.2 -0.1
vt 68.8976 86.6142
f 69/140/2 62/102/2 68/135/2

v 2.75 2.2 -0.1
vt 108.268 86.6142
f 70/141/2 62/102/2 69/140/2

v 2.75 1.05 -0.1
vt 108.268 41.3386
f 71/142/2 62/102/2 70/141/2

f 71/142/2 61/103/2 62/102/2

f 61/103/2 71/142/2 60/104/2

v 1.75 1.05 -0.1
vt 68.8976 41.3386
f 72/143/2 60/104/2 71/142/2

f 68/135/2 60/104/2 72/143/2

f 59/111/2 60/104/2 68/135/2

f 68/135/2 72/143/2 69/140/2

v 1.75 2.2 -0.2
vt 3.93701 41.3386
v 1.75 1.05 -0.2
vt 7.87402 41.3386
f 73/126/1 69/123/1 72/144/1 74/145/1 

v 2.75 2.2 -0.2
vt -108.268 7.87402
vt -108.268 3.93701
vt -68.8976 3.93701
vt -68.8976 7.87402
f 75/146/3 70/147/3 69/148/3 73/149/3 

v 2.75 1.05 -0.2
vt -7.87402 41.3386
vt -3.93701 41.3386
f 76/150/7 71/151/7 70/134/7 75/131/7 

vt 68.8976 7.87402
vt 68.8976 3.93701
vt 108.268 3.93701
vt 108.268 7.87402
f 74/152/9 72/153/9 71/154/9 76/155/9 

f 73/140/2 74/143/2 76/142/2 75/141/2 

vt 66.9291 -1.87583e-14
vn -1 -2.38231e-15 -1.90585e-14
vt 59.0551 -1.87583e-14
f 5/156/12 11/37/12 42/38/12 15/32/12 12/157/12 

vt -74.8031 -9.09683e-31
vn 1 1.1553e-31 -5.95577e-14
vt -66.9291 -9.09683e-31
v 0.2 0.8 1.9
f 18/158/13 5/159/13 11/2/13 77/48/13 

vt -7.80705e-28 -74.8031
vn 2.47874e-29 1 1.80478e-15
vt 7.87402 -74.8031
vt 7.87402 -66.9291
f 41/160/14 77/161/14 11/162/14 10/75/14 

vt 0 31.4961
f 19/50/2 18/5/2 77/13/2 41/163/2 

f 11/162/9 42/78/9 36/79/9 10/75/9 

vt 141.732 -74.8031
vn -9.02389e-16 1 2.70717e-15
vt 133.858 -74.8031
f 34/164/15 2/72/15 8/86/15 28/87/15 27/165/15 

vt 141.732 0
vt 133.858 31.4961
f 16/6/2 22/166/2 34/9/2 27/167/2 

