# Aspose.3D Wavefront OBJ Exporter
# Copyright 2004-2022 Aspose Pty Ltd.
# File created: 10/02/2022 17:43:38


#
# object obj_13601935
#

v 750 2300 5900
v 750 950 6000
v 750 950 5900
v 750 2300 6000
v 850 1050 5900
v 2850 950 5900
v 1850 1050 5900
v 2050 1050 5900
v 1850 2200 5900
v 2750 1050 5900
v 2750 2200 5900
v 850 2200 5900
v 2850 2300 5900
v 2050 2200 5900
v 2850 950 6000
v 2850 2300 6000
v 850 2200 5800
v 850 1050 5800
v 2050 2200 5800
v 2750 2200 5800
v 3600 2800 0
v 3600 0 6000
v 3600 0 0
v 3600 2800 6000
v 0 0 6000
v 0 2800 6000
v 0 0 0
v 0 2800 0
v 2750 1050 5800
v 1850 1050 5800
v 1850 2200 5800
v 2050 1050 5800
# 32 vertices

vn 1 0 0
vn 0 -3.2084951591458775E-15 1
vn 0 1 0
vn -1 0 0
vn 0 -1 -1.443822885143116E-14
vn 0 -1 0
vn 1 3.982058113269289E-31 -1.9250970954875265E-15
vn 0 -5.15651000157079E-16 1
vn 0 -1.2891275003926975E-16 -1
vn -4.117776694334437E-32 1 9.625485477437632E-16
vn -2.0588883471672186E-32 -1 4.812742738718816E-16
vn 0 3.766494206775646E-15 1
# 12 vertex normals

g obj_13601935
s 1
f 1//1 2//1 3//1
f 2//1 1//1 4//1
f 3//2 5//2 1//2
f 5//2 3//2 6//2
f 5//2 6//2 7//2
f 7//2 6//2 8//2
f 7//2 8//2 9//2
f 8//2 6//2 10//2
f 10//2 6//2 11//2
f 1//2 12//2 13//2
f 12//2 1//2 5//2
f 13//2 12//2 9//2
f 13//2 9//2 14//2
f 14//2 9//2 8//2
f 13//2 14//2 11//2
f 13//2 11//2 6//2
f 2//3 6//3 3//3
f 6//3 2//3 15//3
f 16//4 6//4 15//4
f 6//4 16//4 13//4
f 17//1 5//1 18//1
f 5//1 17//1 12//1
f 16//5 1//5 13//5
f 1//5 16//5 4//5
f 11//6 19//6 20//6
f 19//6 11//6 14//6
f 21//7 22//7 23//7
f 22//7 21//7 24//7
f 25//8 2//8 26//8
f 2//8 25//8 22//8
f 2//8 22//8 15//8
f 15//8 22//8 16//8
f 26//8 4//8 24//8
f 4//8 26//8 2//8
f 24//8 4//8 16//8
f 24//8 16//8 22//8
f 21//9 27//9 28//9
f 27//9 21//9 23//9
f 11//4 29//4 10//4
f 29//4 11//4 20//4
f 26//10 21//10 28//10
f 21//10 26//10 24//10
f 5//3 30//3 18//3
f 30//3 5//3 7//3
f 22//11 27//11 23//11
f 27//11 22//11 25//11
f 25//4 28//4 27//4
f 28//4 25//4 26//4
f 30//12 17//12 18//12
f 17//12 30//12 31//12
f 29//12 19//12 32//12
f 19//12 29//12 20//12
f 19//1 8//1 32//1
f 8//1 19//1 14//1
f 9//4 30//4 7//4
f 30//4 9//4 31//4
f 9//6 17//6 31//6
f 17//6 9//6 12//6
f 8//3 29//3 32//3
f 29//3 8//3 10//3
#60 polygons

