# Aspose.3D Wavefront OBJ Exporter
# Copyright 2004-2022 Aspose Pty Ltd.
# File created: 10/02/2022 17:44:14


#
# object obj_58313875
#

v 600 350 5900
v 600 950 6000
v 600 350 6000
v 600 950 5900
v 1700 450 5800
v 700 850 5800
v 700 450 5800
v 1700 850 5800
v 0 2800 6000
v 2400 2800 0
v 0 2800 0
v 2400 2800 6000
v 0 0 6000
v 0 0 0
v 1800 950 6000
v 1800 950 5900
v 1700 850 5900
v 700 850 5900
v 700 450 5900
v 1800 350 5900
v 1700 450 5900
v 2400 0 6000
v 1800 350 6000
v 2400 0 0
# 24 vertices

vn 1 0 0
vn 0 -3.60955721285779E-15 1
vn 0 1 7.219114108078224E-16
vn -1 0 0
vn 0 -1 0
vn 0 -1 -1.443822885143116E-14
vn 0 0 1
vn 0 1 0
vn 0 -5.15651000157079E-16 1
vn 0 3.8673825011780925E-16 -1
vn 0 1 1.443822885143116E-14
vn 0 -1 4.812742738718816E-16
# 12 vertex normals

g obj_58313875
s 1
f 1//1 2//1 3//1
f 2//1 1//1 4//1
f 5//2 6//2 7//2
f 6//2 5//2 8//2
f 9//3 10//3 11//3
f 10//3 9//3 12//3
f 13//4 11//4 14//4
f 11//4 13//4 9//4
f 15//5 4//5 16//5
f 4//5 15//5 2//5
f 17//6 6//6 8//6
f 6//6 17//6 18//6
f 1//7 19//7 4//7
f 19//7 1//7 20//7
f 19//7 20//7 21//7
f 21//7 20//7 17//7
f 4//7 18//7 16//7
f 18//7 4//7 19//7
f 16//7 18//7 17//7
f 16//7 17//7 20//7
f 19//8 5//8 7//8
f 5//8 19//8 21//8
f 13//9 3//9 9//9
f 3//9 13//9 22//9
f 3//9 22//9 23//9
f 23//9 22//9 15//9
f 9//9 2//9 12//9
f 2//9 9//9 3//9
f 12//9 2//9 15//9
f 12//9 15//9 22//9
f 10//1 22//1 24//1
f 22//1 10//1 12//1
f 10//10 14//10 11//10
f 14//10 10//10 24//10
f 3//11 20//11 1//11
f 20//11 3//11 23//11
f 17//4 5//4 21//4
f 5//4 17//4 8//4
f 6//1 19//1 7//1
f 19//1 6//1 18//1
f 15//4 20//4 23//4
f 20//4 15//4 16//4
f 22//12 14//12 24//12
f 14//12 22//12 13//12
#44 polygons

