# Aspose.3D Wavefront OBJ Exporter
# Copyright 2004-2022 Aspose Pty Ltd.
# File created: 10/03/2022 15:38:15


#
# object obj_45997073
#

v 5150 2200 5800
v 4050 1050 5800
v 5150 1050 5800
v 4050 2200 5800
v 3850 2200 5800
v 3250 1050 5800
v 3850 1050 5800
v 3250 2200 5800
v 3850 1050 5900
v 3850 2200 5900
v 4050 2200 5900
v 4050 1050 5900
v 5150 1050 5900
v 3250 2200 5900
v 0 2800 0
v 6000 0 0
v 0 0 0
v 6000 2800 0
v 0 0 6000
v 0 2800 6000
v 6000 0 6000
v 6000 2800 6000
v 1950 950 6000
v 750 950 5900
v 750 950 6000
v 1950 950 5900
v 1850 2200 5800
v 850 2200 5900
v 850 2200 5800
v 1850 2200 5900
v 1950 2300 5900
v 750 2300 6000
v 750 2300 5900
v 1950 2300 6000
v 5250 2300 5900
v 3150 2300 6000
v 3150 2300 5900
v 5250 2300 6000
v 5250 950 6000
v 5250 950 5900
v 3150 950 5900
v 3150 950 6000
v 3250 1050 5900
v 850 1050 5800
v 1850 1050 5800
v 5150 2200 5900
v 1850 1050 5900
v 850 1050 5900
# 48 vertices

vn 0 0 1
vn -1 0 0
vn 1 0 0
vn 0 1 0
vn 0 -1 0
vn 0 0 -1
vn 0 -1 0
# 7 vertex normals

g obj_45997073
s 1
f 1//1 2//1 3//1
f 2//1 1//1 4//1
f 5//1 6//1 7//1
f 6//1 5//1 8//1
f 5//2 9//2 10//2
f 9//2 5//2 7//2
f 2//3 11//3 12//3
f 11//3 2//3 4//3
f 13//4 2//4 12//4
f 2//4 13//4 3//4
f 5//5 14//5 8//5
f 14//5 5//5 10//5
f 15//6 16//6 17//6
f 16//6 15//6 18//6
f 15//2 19//2 20//2
f 19//2 15//2 17//2
f 16//7 19//7 17//7
f 19//7 16//7 21//7
f 16//3 22//3 21//3
f 22//3 16//3 18//3
f 23//4 24//4 25//4
f 24//4 23//4 26//4
f 27//5 28//5 29//5
f 28//5 27//5 30//5
f 31//5 32//5 33//5
f 32//5 31//5 34//5
f 35//5 36//5 37//5
f 36//5 35//5 38//5
f 35//2 39//2 38//2
f 39//2 35//2 40//2
f 41//3 36//3 42//3
f 36//3 41//3 37//3
f 31//2 23//2 34//2
f 23//2 31//2 26//2
f 24//3 32//3 25//3
f 32//3 24//3 33//3
f 9//4 6//4 43//4
f 6//4 9//4 7//4
f 27//1 44//1 45//1
f 44//1 27//1 29//1
f 40//1 13//1 41//1
f 13//1 40//1 35//1
f 13//1 35//1 46//1
f 46//1 35//1 11//1
f 11//1 35//1 10//1
f 10//1 35//1 14//1
f 41//1 43//1 37//1
f 43//1 41//1 13//1
f 43//1 13//1 12//1
f 43//1 12//1 9//1
f 37//1 43//1 14//1
f 37//1 14//1 35//1
f 11//1 9//1 12//1
f 9//1 11//1 10//1
f 1//2 13//2 46//2
f 13//2 1//2 3//2
f 27//2 47//2 30//2
f 47//2 27//2 45//2
f 26//1 47//1 24//1
f 47//1 26//1 31//1
f 47//1 31//1 30//1
f 30//1 31//1 28//1
f 24//1 48//1 33//1
f 48//1 24//1 47//1
f 33//1 48//1 28//1
f 33//1 28//1 31//1
f 47//4 44//4 48//4
f 44//4 47//4 45//4
f 1//5 11//5 4//5
f 11//5 1//5 46//5
f 22//4 15//4 20//4
f 15//4 22//4 18//4
f 44//3 28//3 48//3
f 28//3 44//3 29//3
f 21//1 39//1 19//1
f 39//1 21//1 22//1
f 39//1 22//1 38//1
f 38//1 22//1 36//1
f 36//1 22//1 34//1
f 34//1 22//1 32//1
f 19//1 25//1 20//1
f 25//1 19//1 39//1
f 25//1 39//1 42//1
f 25//1 42//1 23//1
f 20//1 25//1 32//1
f 20//1 32//1 22//1
f 36//1 23//1 42//1
f 23//1 36//1 34//1
f 39//4 41//4 42//4
f 41//4 39//4 40//4
f 6//3 14//3 43//3
f 14//3 6//3 8//3
#92 polygons

