# Aspose.3D Wavefront OBJ Exporter
# Copyright 2004-2022 Aspose Pty Ltd.
# File created: 10/14/2022 19:50:11


#
# object obj_12384132
#

v 3600 1400 0
v 0 0 0
v 0 1400 0
v 3600 0 0
v 3600 1400 6000
v 3600 0 6000
v 0 1400 6000
v 0 0 6000
# 8 vertices

vn 0 0 -1
vn 1 0 0
vn 0 0 1
vn 0 1 0
vn 0 -1 0
vn -1 0 0
# 6 vertex normals

g obj_12384132
s 1
f 1//1 2//1 3//1
f 2//1 1//1 4//1
f 4//2 5//2 6//2
f 5//2 4//2 1//2
f 6//3 7//3 8//3
f 7//3 6//3 5//3
f 7//4 1//4 3//4
f 1//4 7//4 5//4
f 6//5 2//5 4//5
f 2//5 6//5 8//5
f 7//6 2//6 8//6
f 2//6 7//6 3//6
#12 polygons

