# Aspose.3D Wavefront OBJ Exporter
# Copyright 2004-2022 Aspose Pty Ltd.
# File created: 10/14/2022 19:49:43


#
# object obj_50498452
#

v 3000 2800 0
v 0 0 0
v 0 2800 0
v 3000 0 0
v 0 2800 6000
v 0 0 6000
v 3000 0 6000
v 3000 2800 6000
# 8 vertices

vn 0 0 -1
vn -1 0 0
vn 0 0 1
vn 1 0 0
vn 0 1 0
vn 0 -1 0
# 6 vertex normals

g obj_50498452
s 1
f 1//1 2//1 3//1
f 2//1 1//1 4//1
f 5//2 2//2 6//2
f 2//2 5//2 3//2
f 7//3 5//3 6//3
f 5//3 7//3 8//3
f 4//4 8//4 7//4
f 8//4 4//4 1//4
f 5//5 1//5 3//5
f 1//5 5//5 8//5
f 7//6 2//6 4//6
f 2//6 7//6 6//6
#12 polygons

