# Aspose.3D Wavefront OBJ Exporter
# Copyright 2004-2022 Aspose Pty Ltd.
# File created: 10/14/2022 19:49:57


#
# object obj_44461297
#

v 2400 0 6000
v 0 0 0
v 2400 0 0
v 0 0 6000
v 2400 1400 0
v 0 1400 0
v 0 1400 6000
v 2400 1400 6000
# 8 vertices

vn 0 -1 0
vn 0 0 -1
vn 0 1 0
vn -1 0 0
vn 0 0 1
vn 1 0 0
# 6 vertex normals

g obj_44461297
s 1
f 1//1 2//1 3//1
f 2//1 1//1 4//1
f 5//2 2//2 6//2
f 2//2 5//2 3//2
f 7//3 5//3 6//3
f 5//3 7//3 8//3
f 7//4 2//4 4//4
f 2//4 7//4 6//4
f 1//5 7//5 4//5
f 7//5 1//5 8//5
f 3//6 8//6 1//6
f 8//6 3//6 5//6
#12 polygons

