# Alias OBJ Model File
# Exported from SketchUp, (c) 2000-2012 Trimble Navigation Limited
# File units = meters

mtllib 71c58b86-8d84-4ca1-9d6b-3a718733bce8.mtl

g Mesh1 Model

usemtl FrontColor
v 0 0 -6
vt -236.22 0
vn -1 0 -0
v 0 0 -0
vt 0 0
v 0 1.4 -0
vt 0 55.1181
v 0 1.4 -6
vt -236.22 55.1181
f 1/1/1 2/2/1 3/3/1 4/4/1 

v 3.6 0 -0
vt -141.732 0
vn 0 -1 -0
vt 0 236.22
v 3.6 0 -6
vt -141.732 236.22
f 5/5/2 2/2/2 1/6/2 6/7/2 

vt 141.732 0
vn 0 0 1
v 2.85 0.4 -0
vt 112.205 15.748
f 5/8/3 7/9/3 2/2/3

v 3.6 1.4 -0
vt 141.732 55.1181
f 7/9/3 5/8/3 8/10/3

vn 1 0 -0
vt 236.22 0
v 3.6 1.4 -6
vt 236.22 55.1181
f 5/2/4 6/11/4 9/12/4 8/3/4 

vn 0 0 -1
vt -141.732 55.1181
f 6/5/5 1/2/5 4/3/5 9/13/5 

vn 0 1 -0
vt 141.732 236.22
f 3/2/6 8/8/6 9/14/6 4/6/6 

v 0.75 0.85 -0
vt 29.5276 33.4646
f 3/3/3 10/15/3 8/10/3

v 0.75 0.4 -0
vt 29.5276 15.748
f 3/3/3 11/16/3 10/15/3

f 2/2/3 11/16/3 3/3/3

f 11/16/3 2/2/3 7/9/3

v 2.25 0.4 -0
vt 88.5827 15.748
f 11/16/3 7/9/3 12/17/3

vt 88.5827 0
vt 112.205 0
v 2.85 0.4 -0.1
vt 112.205 3.93701
v 2.25 0.4 -0.1
vt 88.5827 3.93701
f 12/18/6 7/19/6 13/20/6 14/21/6 

vt 0 15.748
v 2.85 0.85 -0
vt 0 33.4646
v 2.85 0.85 -0.1
vt -3.93701 33.4646
vt -3.93701 15.748
f 7/22/1 15/23/1 16/24/1 13/25/1 

vt 112.205 33.4646
f 7/9/3 8/10/3 15/26/3

v 2.25 0.85 -0
vt 88.5827 33.4646
f 15/26/3 8/10/3 17/27/3

v 1.35 0.85 -0
vt 53.1496 33.4646
f 17/27/3 8/10/3 18/28/3

f 18/28/3 8/10/3 10/15/3

vt -53.1496 0
vt -29.5276 0
v 0.75 0.85 -0.1
vt -29.5276 3.93701
v 1.35 0.85 -0.1
vt -53.1496 3.93701
f 18/29/2 10/30/2 19/31/2 20/32/2 

v 0.75 0.4 -0.1
vt 3.93701 15.748
vt 3.93701 33.4646
f 10/23/4 11/22/4 21/33/4 19/34/4 

vt 29.5276 0
v 1.35 0.4 -0
vt 53.1496 0
v 1.35 0.4 -0.1
vt 53.1496 3.93701
vt 29.5276 3.93701
f 11/35/6 22/36/6 23/37/6 21/38/6 

vt 53.1496 15.748
f 11/16/3 12/17/3 22/39/3

f 17/27/3 22/39/3 12/17/3

f 22/39/3 17/27/3 18/28/3

f 22/22/1 18/23/1 20/24/1 23/25/1 

v 1.25 0.5 -0.1
vt 49.2126 19.685
f 24/40/3 23/39/3 20/28/3

f 23/39/3 24/40/3 21/16/3

v 0.85 0.5 -0.1
vt 33.4646 19.685
f 25/41/3 21/16/3 24/40/3

f 21/16/3 25/41/3 19/15/3

v 0.85 0.75 -0.1
vt 33.4646 29.5276
f 19/15/3 25/41/3 26/42/3

v 0.85 0.75 -0.2
vt 7.87402 29.5276
vt 3.93701 29.5276
vt 3.93701 19.685
v 0.85 0.5 -0.2
vt 7.87402 19.685
f 27/43/4 26/44/4 25/45/4 28/46/4 

v 1.25 0.75 -0.2
vt -49.2126 7.87402
v 1.25 0.75 -0.1
vt -49.2126 3.93701
vt -33.4646 3.93701
vt -33.4646 7.87402
f 29/47/2 30/48/2 26/49/2 27/50/2 

v 1.25 0.5 -0.2
vt -7.87402 19.685
vt -3.93701 19.685
vt -3.93701 29.5276
vt -7.87402 29.5276
f 31/51/1 24/52/1 30/53/1 29/54/1 

vt 33.4646 7.87402
vt 33.4646 3.93701
vt 49.2126 3.93701
vt 49.2126 7.87402
f 28/55/6 25/56/6 24/57/6 31/58/6 

vt 49.2126 29.5276
f 28/41/3 31/40/3 29/59/3 27/42/3 

f 24/40/3 20/28/3 30/59/3

f 30/59/3 20/28/3 26/42/3

f 19/15/3 26/42/3 20/28/3

v 2.25 0.85 -0.1
f 17/23/4 12/22/4 14/33/4 32/34/4 

v 2.35 0.5 -0.1
vt 92.5197 19.685
f 14/17/3 33/60/3 32/27/3

v 2.75 0.5 -0.1
vt 108.268 19.685
f 33/60/3 14/17/3 34/61/3

f 13/9/3 34/61/3 14/17/3

f 34/61/3 13/9/3 16/26/3

v 2.75 0.75 -0.1
vt 108.268 29.5276
f 34/61/3 16/26/3 35/62/3

v 2.35 0.75 -0.1
vt 92.5197 29.5276
f 35/62/3 16/26/3 36/63/3

f 32/27/3 36/63/3 16/26/3

f 32/27/3 33/60/3 36/63/3

v 2.35 0.75 -0.2
v 2.35 0.5 -0.2
f 37/43/4 36/44/4 33/45/4 38/46/4 

v 2.75 0.75 -0.2
vt -108.268 7.87402
vt -108.268 3.93701
vt -92.5197 3.93701
vt -92.5197 7.87402
f 39/64/2 35/65/2 36/66/2 37/67/2 

v 2.75 0.5 -0.2
f 40/51/1 34/52/1 35/53/1 39/54/1 

vt 92.5197 7.87402
vt 92.5197 3.93701
vt 108.268 3.93701
vt 108.268 7.87402
f 38/68/6 33/69/6 34/70/6 40/71/6 

f 39/62/3 37/63/3 38/60/3 40/61/3 

vt -112.205 0
vt -88.5827 0
vt -88.5827 3.93701
vt -112.205 3.93701
f 15/72/2 17/73/2 32/74/2 16/75/2 

