# Alias OBJ Model File
# Exported from SketchUp, (c) 2000-2012 Trimble Navigation Limited
# File units = meters

mtllib 5705571e-5888-44d1-aa26-a36dec4d1573.mtl

g Mesh1 Model

usemtl FrontColor
v 0 0 -6
vt -2.84217e-13 5.24373e-13
vn -1.20319e-15 -2.21985e-15 -1
v 0 0.650415 -6
vt -2.84217e-13 25.6069
v 3.6 0.650415 -6
vt -141.732 25.6069
v 3.6 0 -6
vt -141.732 5.24373e-13
f 1/1/1 2/2/1 3/3/1 4/4/1 

v 0 0 -0
vt 0 0
vn -1 0 -0
v 0 1.5 -0
vt 0 59.0551
v 0 1.15 -5.68
vt -223.622 45.2756
v 0 0.925 -5.68
vt -223.622 36.4173
v 0 0.925 -5.58
vt -219.685 36.4173
v 0 0.742572 -5.6168
vt -221.134 29.2351
v 0 0.714023 -5.63923
vt -222.017 28.1111
v 0 0.7 -5.68517
vt -223.825 27.5591
vt -236.22 25.6069
vt -236.22 0
f 5/5/2 6/6/2 7/7/2 8/8/2 9/9/2 10/10/2 11/11/2 12/12/2 2/13/2 1/14/2 

v 3.6 1.5 -0
vt 141.732 59.0551
vn 0 0 1
v 3.6 0 -0
vt 141.732 0
f 13/15/3 6/6/3 5/5/3 14/16/3 

v 3.6 1.15 -5.68
vt -141.732 -220.414
vn 0 0.998107 -0.0615031
vt 0 -220.414
vt 0 3.63207
vt -141.732 3.63207
f 15/17/4 7/18/4 6/19/4 13/20/4 

v 3.6 0.925 -5.68
vt -141.732 36.4173
vn 0 0 -1
vt 0 36.4173
vt 0 45.2756
vt -141.732 45.2756
f 16/21/5 8/22/5 7/23/5 15/24/5 

v 3.6 0.925 -5.58
vt -141.732 219.685
vn 0 -1 -0
vt 0 219.685
vt 0 223.622
vt -141.732 223.622
f 17/25/6 9/26/6 8/27/6 16/28/6 

v 3.6 0.742572 -5.6168
vt -141.732 -15.0688
vn 0 0.197738 -0.980255
vt 0 -15.0688
vt 0 -7.74191
vt -141.732 -7.74191
f 18/29/7 10/30/7 9/31/7 17/32/7 

v 3.6 0.714023 -5.63923
vt -141.732 -115.06
vn 0 0.617813 -0.786325
vt 0 -115.06
vt 0 -113.631
vt -141.732 -113.631
f 19/33/8 11/34/8 10/35/8 18/36/8 

v 3.6 0.7 -5.68517
vt -141.732 -206.027
vn 0 0.956428 -0.291967
vt 0 -206.027
vt 0 -204.136
vt -141.732 -204.136
f 20/37/9 12/38/9 11/39/9 19/40/9 

vt -141.732 -229.36
vn -6.25141e-17 0.987824 -0.155578
vt -9.4918e-14 -229.36
vt -8.99374e-14 -216.813
vt -141.732 -216.813
f 3/41/10 2/42/10 12/43/10 20/44/10 

vt 236.22 0
vn 1 0 -0
vt 236.22 25.6069
vt 223.825 27.5591
vt 222.017 28.1111
vt 221.134 29.2351
vt 219.685 36.4173
vt 223.622 36.4173
vt 223.622 45.2756
f 4/45/11 3/46/11 20/47/11 19/48/11 18/49/11 17/50/11 16/51/11 15/52/11 13/6/11 14/5/11 

vt 0 236.22
vt -141.732 236.22
vt -141.732 0
f 1/53/6 4/54/6 14/55/6 5/5/6 

