# Alias OBJ Model File
# Exported from SketchUp, (c) 2000-2012 Trimble Navigation Limited
# File units = meters

mtllib d4631ca6-9f14-46fb-b0cf-8866022eb93c.mtl

g Mesh1 Model

usemtl FrontColor
v 3.8 2.2 -0.2
vt -149.606 7.87402
vn 0 -1 -0
v 3.8 2.2 -0.1
vt -149.606 3.93701
v 2.8 2.2 -0.1
vt -110.236 3.93701
v 2.8 2.2 -0.2
vt -110.236 7.87402
f 1/1/1 2/2/1 3/3/1 4/4/1 

v 3.8 1.05 -0.2
vt -7.87402 41.3386
vn -1 0 -0
v 3.8 1.05 -0.1
vt -3.93701 41.3386
vt -3.93701 86.6142
vt -7.87402 86.6142
f 5/5/2 6/6/2 2/7/2 1/8/2 

v 2.8 1.05 -0.2
vt 110.236 7.87402
vn 0 1 -0
v 2.8 1.05 -0.1
vt 110.236 3.93701
vt 149.606 3.93701
vt 149.606 7.87402
f 7/9/3 8/10/3 6/11/3 5/12/3 

vt 7.87402 86.6142
vn 1 0 -0
vt 3.93701 86.6142
vt 3.93701 41.3386
vt 7.87402 41.3386
f 4/13/4 3/14/4 8/15/4 7/16/4 

vt 110.236 86.6142
vn 0 0 1
v 2.6 1.05 -0.1
vt 102.362 41.3386
vt 110.236 41.3386
f 3/17/5 9/18/5 8/19/5

v 2.6 2.2 -0.1
vt 102.362 86.6142
f 9/18/5 3/17/5 10/20/5

v 3.9 2.3 -0.1
vt 153.543 90.5512
f 3/17/5 11/21/5 10/20/5

vt 149.606 86.6142
f 2/22/5 11/21/5 3/17/5

vt 149.606 41.3386
f 6/23/5 11/21/5 2/22/5

v 3.9 0.95 -0.1
vt 153.543 37.4016
f 6/23/5 12/24/5 11/21/5

v 0.9 0.95 -0.1
vt 35.4331 37.4016
f 12/24/5 6/23/5 13/25/5

v 1 1.05 -0.1
vt 39.3701 41.3386
f 14/26/5 13/25/5 6/23/5

v 0.9 2.3 -0.1
vt 35.4331 90.5512
f 13/25/5 14/26/5 15/27/5

v 1 2.2 -0.1
vt 39.3701 86.6142
f 15/27/5 14/26/5 16/28/5

v 1 2.2 -0.2
v 1 1.05 -0.2
f 17/13/4 16/14/4 14/15/4 18/16/4 

v 2 2.2 -0.2
vt -78.7402 7.87402
v 2 2.2 -0.1
vt -78.7402 3.93701
vt -39.3701 3.93701
vt -39.3701 7.87402
f 19/29/1 20/30/1 16/31/1 17/32/1 

v 2 1.05 -0.2
v 2 1.05 -0.1
f 21/5/2 22/6/2 20/7/2 19/8/2 

vt 39.3701 7.87402
vt 39.3701 3.93701
vt 78.7402 3.93701
vt 78.7402 7.87402
f 18/33/3 14/34/3 22/35/3 21/36/3 

v 2.2 1.05 -0.1
vt 86.6142 41.3386
vt 78.7402 41.3386
f 14/26/5 23/37/5 22/38/5

f 14/26/5 9/18/5 23/37/5

f 14/26/5 8/19/5 9/18/5

f 14/26/5 6/23/5 8/19/5

v 2.2 1.05 -0.2
vt 86.6142 7.87402
vt 86.6142 3.93701
vt 102.362 3.93701
v 2.6 1.05 -0.2
vt 102.362 7.87402
f 24/39/3 23/40/3 9/41/3 25/42/3 

v 2.2 2.2 -0.2
v 2.2 2.2 -0.1
f 26/13/4 27/14/4 23/15/4 24/16/4 

v 2.6 2.2 -0.2
vt -102.362 7.87402
vt -102.362 3.93701
vt -86.6142 3.93701
vt -86.6142 7.87402
f 28/43/1 10/44/1 27/45/1 26/46/1 

f 25/5/2 9/6/2 10/7/2 28/8/2 

vt 86.6142 86.6142
f 24/37/5 25/18/5 28/20/5 26/47/5 

f 10/20/5 11/21/5 27/47/5

vt 78.7402 86.6142
f 27/47/5 11/21/5 20/48/5

f 20/48/5 11/21/5 16/28/5

f 15/27/5 16/28/5 11/21/5

v 3.9 2.3 -0
vt -153.543 0
v 0.9 2.3 -0
vt -35.4331 0
vt -35.4331 3.93701
vt -153.543 3.93701
f 29/49/1 30/50/1 15/51/1 11/52/1 

v 4.8 2.8 -0
vt 188.976 110.236
f 29/21/5 31/53/5 30/27/5

v 3.9 0.95 -0
f 32/24/5 31/53/5 29/21/5

v 4.8 0 -0
vt 188.976 0
f 32/24/5 33/54/5 31/53/5

v 0 0 -0
vt 0 0
f 33/54/5 32/24/5 34/55/5

v 0.9 0.95 -0
f 35/25/5 34/55/5 32/24/5

v 0 2.8 -0
vt 0 110.236
f 34/55/5 35/25/5 36/56/5

f 36/56/5 35/25/5 30/27/5

vt 0 90.5512
vt 0 37.4016
vt 3.93701 37.4016
vt 3.93701 90.5512
f 30/57/4 35/58/4 13/59/4 15/60/4 

vt 35.4331 0
vt 153.543 0
vt 153.543 3.93701
vt 35.4331 3.93701
f 35/61/3 32/62/3 12/63/3 13/64/3 

vt -3.93701 90.5512
vt -3.93701 37.4016
f 32/58/2 29/57/2 11/65/2 12/66/2 

f 36/56/5 30/27/5 31/53/5

v 4.8 2.8 -6
vt 188.976 236.22
v 0 2.8 -6
vt 0 236.22
f 36/55/3 31/54/3 37/67/3 38/68/3 

v 4.8 0 -6
vt 236.22 0
vt 236.22 110.236
f 33/55/4 39/69/4 37/70/4 31/56/4 

vt -188.976 0
v 0 0 -6
vt -188.976 236.22
f 33/71/1 34/55/1 40/68/1 39/72/1 

vt -236.22 0
vt -236.22 110.236
f 40/73/2 34/55/2 36/56/2 38/74/2 

vn 0 0 -1
vt -188.976 110.236
f 39/71/6 40/55/6 38/56/6 37/75/6 

f 22/38/5 27/47/5 20/48/5

f 27/47/5 22/38/5 23/37/5

f 18/26/5 21/38/5 19/48/5 17/28/5 

f 1/22/5 4/17/5 7/19/5 5/23/5 

